With: Elijah Wood, Ian McKellen and Viggo Mortensen

Een eeuwenoude ring, die jaren zoek is geweest, wordt gevonden en komt bij toeval terecht bij de kleine Hobbit Frodo. Als de tovenaar Gandalf erachter komt dat deze ring eigenlijk de Ene Ring is waar de slechte Sauron naar op zoek is, gaat Frodo samen met Gandalf, een Dwerg, een Elf, twee Mensen en drie andere Hobbits op een groots avontuur om deze te vernietigen.

In a small village in the Shire a young Hobbit named Frodo has been entrusted with an ancient Ring. Now he must embark on an Epic quest to the Cracks of Doom in order to destroy it. 

------------------------ Dutch Friends ------------------------
---------------------------------------------------------------
- Bezoek ook eens mijn vrienden op:  http://www.Film-Test.nl --
----- voor mijn Nederlandse Sync. ondertitels ---- en meer ----
------- http://www.Film-Test.nl ---- voor Films en meer -------
---------------------------------------------------------------

General:

Complete name                    : The Lord of the Rings\01The Fellowship of the Ring.avi
Format                           : AVI
Format/Info                      : Audio Video Interleave
File size                        : 2.45 GiB
Duration                         : 2h 51mn
Overall bit rate                 : 2 050 Kbps

Video:

Format                           : MPEG-4 Visual
Format profile                   : Simple@L3
Format settings, BVOP            : No
Format settings, QPel            : No
Format settings, GMC             : No warppoints
Format settings, Matrix          : Default (H.263)
Codec ID                         : XVID
Codec ID/Hint                    : XviD
Duration                         : 2h 51mn
Bit rate                         : 1 591 Kbps
Width                            : 720 pixels
Height                           : 304 pixels
Display aspect ratio             : 2.35:1
Frame rate                       : 25.000 fps
Color space                      : YUV
Chroma subsampling               : 4:2:0
Bit depth                        : 8 bits
Scan type                        : Progressive
Compression mode                 : Lossy
Bits/(Pixel*Frame)               : 0.291
Stream size                      : 1.90 GiB (78%)
Writing library                  : XviD 1.1.2 (UTC 2006-11-01)

Audio:

Format                           : AC-3
Format/Info                      : Audio Coding 3
Mode extension                   : CM (complete main)
Codec ID                         : 2000
Duration                         : 2h 51mn
Bit rate mode                    : Constant
Bit rate                         : 448 Kbps
Channel(s)                       : 6 channels
Channel positions                : Front: L C R, Side: L R, LFE
Sampling rate                    : 48.0 KHz
Bit depth                        : 16 bits
Compression mode                 : Lossy
Stream size                      : 548 MiB (22%)
Alignment                        : Aligned on interleaves
Interleave, duration             : 32 ms (0.80 video frame)
Interleave, preload duration     : 512 ms

